<svg role="img" viewBox="0 0 24 24" xmlns="http://www.w3.org/2000/svg"><title>Free Fire</title><defs><linearGradient id="ffG" x1="0" y1="0" x2="0" y2="1"><stop offset="0" stop-color="#ffb13d"/><stop offset=".55" stop-color="#ff6d1f"/><stop offset="1" stop-color="#e02d1b"/></linearGradient></defs><path fill="url(#ffG)" d="M12 1.6c.5 3.1-.6 4.9-2.2 6.6C8 10.1 6 12 6 15.2c0 3.9 2.9 7.2 6 7.2s6-3.3 6-7.2c0-2.4-1-4.1-2.2-5.7-.3 1.4-1 2.4-2 3 .3-2.9-.6-6.6-1.8-10.9zM12 21c-1.7 0-3.2-1.5-3.2-3.5 0-1.6.9-2.6 1.9-3.7.7-.7 1.3-1.5 1.7-2.5.4 1 1 1.8 1.7 2.5 1 1.1 1.9 2.1 1.9 3.7 0 2-1.5 3.5-4 3.5z"/></svg>
